<?xml version="1.0" encoding="iso-8859-1"?>
<!-- Generator: Adobe Illustrator 19.0.0, SVG Export Plug-In . SVG Version: 6.00 Build 0)  -->
<svg version="1.1" id="Capa_1" xmlns="http://www.w3.org/2000/svg" xmlns:xlink="http://www.w3.org/1999/xlink" x="0px" y="0px"
	 viewBox="0 0 459.235 459.235" style="enable-background:new 0 0 459.235 459.235;" xml:space="preserve">
<g>
	<g>
		<g>
			<path d="M299.39,67.659c-0.009,0-0.018,0-0.026-0.001H256V49.895c0.626-3.991-2.102-7.733-6.093-8.359
				c-0.751-0.118-1.516-0.118-2.266,0h-30.824c-7.031-19.451-25.83-32.124-46.498-31.347c-20.668-0.777-39.467,11.896-46.498,31.347
				H93.518c-5.747,0-9.927,2.612-9.927,8.359v17.763H42.318C19.064,67.94,0.282,86.723,0,109.977V409.34
				c0,22.988,19.331,39.706,42.318,39.706h257.045c21.334,0.874,39.337-15.712,40.211-37.047c0.036-0.886,0.042-1.773,0.017-2.66
				V109.977C340.176,87.19,322.177,68.243,299.39,67.659z M104.49,62.434h27.167c5.016-0.612,9.045-4.428,9.927-9.404
				c3.715-15.725,19.474-25.462,35.2-21.747c10.782,2.547,19.2,10.965,21.747,21.747c0.754,5.247,5.151,9.206,10.449,9.404h26.122
				v41.796H104.49V62.434z M302.083,428.186c-0.906,0.057-1.816,0.045-2.72-0.037H42.318c-11.494,0-21.42-7.314-21.42-18.808
				V109.977c0.276-11.714,9.706-21.145,21.42-21.42h41.273v26.645c-0.297,5.185,3.666,9.629,8.851,9.927
				c0.358,0.021,0.717,0.021,1.076,0h154.122c5.747,0,8.359-4.18,8.359-9.927V88.556h43.363
				c11.239,0.562,19.895,10.128,19.333,21.367c-0.001,0.018-0.002,0.036-0.003,0.054V409.34
				C319.311,419.131,311.874,427.568,302.083,428.186z"/>
			<path d="M74.71,297.014c2.055,2.1,4.9,3.238,7.837,3.135c2.6-0.061,5.059-1.196,6.792-3.135l40.751-38.661
				c4.172-3.557,4.67-9.822,1.113-13.994c-0.188-0.22-0.385-0.432-0.591-0.635c-3.919-4.131-10.425-4.364-14.629-0.522
				l-33.437,31.869l-14.106-14.629c-3.919-4.131-10.425-4.363-14.629-0.522c-3.952,4.203-4.176,10.685-0.522,15.151L74.71,297.014z"
				/>
			<path d="M282.122,266.189H161.959c-5.771,0-10.449,4.678-10.449,10.449s4.678,10.449,10.449,10.449h120.163
				c5.771,0,10.449-4.678,10.449-10.449S287.893,266.189,282.122,266.189z"/>
			<path d="M74.71,213.422c2.055,2.1,4.9,3.238,7.837,3.135c2.6-0.061,5.059-1.196,6.792-3.135l40.751-38.661
				c4.172-3.557,4.67-9.822,1.113-13.994c-0.188-0.22-0.385-0.432-0.591-0.635c-3.919-4.131-10.425-4.364-14.629-0.522
				l-33.437,31.869L68.441,176.85c-3.919-4.131-10.425-4.364-14.629-0.522c-3.952,4.203-4.176,10.685-0.522,15.151L74.71,213.422z"
				/>
			<path d="M282.122,182.597H161.959c-5.771,0-10.449,4.678-10.449,10.449s4.678,10.449,10.449,10.449h120.163
				c5.771,0,10.449-4.678,10.449-10.449S287.893,182.597,282.122,182.597z"/>
			<path d="M282.122,349.781H161.959c-5.771,0-10.449,4.678-10.449,10.449s4.678,10.449,10.449,10.449h120.163
				c5.771,0,10.449-4.678,10.449-10.449S287.893,349.781,282.122,349.781z"/>
			<path d="M94.563,312.165c-23.66,0-42.841,19.18-42.841,42.841s19.18,42.841,42.841,42.841s42.841-19.18,42.841-42.841
				C137.404,331.345,118.224,312.165,94.563,312.165z M116.506,355.005c-0.284,11.914-10.025,21.424-21.943,21.42
				c-12.119-0.003-21.94-9.83-21.937-21.949s9.83-21.94,21.949-21.937c12.119,0.003,21.94,9.83,21.937,21.949
				C116.512,354.661,116.51,354.833,116.506,355.005z"/>
			<path d="M412.738,93.778c-0.175,0-0.35,0.001-0.525,0.003h-9.404c-25.679-0.289-46.729,20.294-47.017,45.973
				c-0.002,0.175-0.003,0.35-0.003,0.525v227.788c-0.039,1.863,0.51,3.69,1.567,5.224l41.273,66.351
				c1.963,2.982,5.312,4.755,8.882,4.702c3.525-0.121,6.799-1.855,8.882-4.702l41.273-66.351c1.058-1.534,1.606-3.362,1.567-5.224
				V140.279C459.234,114.599,438.418,93.78,412.738,93.778z M381.91,355.005h-5.224V166.924h5.224V355.005z M407.51,411.952
				l-22.465-36.049h44.931L407.51,411.952z M402.808,355.005V166.924h9.404v188.082H402.808z M438.335,355.005h-5.224V166.924h5.224
				V355.005z M438.335,146.026h-61.649v-6.269c-0.012-13.85,11.206-25.087,25.056-25.099c0.356,0,0.711,0.007,1.067,0.022h9.404
				c13.838-0.577,25.524,10.173,26.101,24.011c0.015,0.355,0.022,0.711,0.022,1.067V146.026z"/>
		</g>
	</g>
</g>
<g>
</g>
<g>
</g>
<g>
</g>
<g>
</g>
<g>
</g>
<g>
</g>
<g>
</g>
<g>
</g>
<g>
</g>
<g>
</g>
<g>
</g>
<g>
</g>
<g>
</g>
<g>
</g>
<g>
</g>
</svg>
