<?xml version="1.0" encoding="iso-8859-1"?>
<!-- Generator: Adobe Illustrator 19.0.0, SVG Export Plug-In . SVG Version: 6.00 Build 0)  -->
<svg version="1.1" id="Capa_1" xmlns="http://www.w3.org/2000/svg" xmlns:xlink="http://www.w3.org/1999/xlink" x="0px" y="0px"
	 viewBox="0 0 417.959 417.959" style="enable-background:new 0 0 417.959 417.959;" xml:space="preserve">
<g>
	<g>
		<g>
			<path d="M231.445,251.296H64.261c-5.771,0-10.449,4.678-10.449,10.449s4.678,10.449,10.449,10.449h167.184
				c5.771,0,10.449-4.678,10.449-10.449S237.216,251.296,231.445,251.296z"/>
			<path d="M64.261,209.5h88.816c5.771,0,10.449-4.678,10.449-10.449c0-5.771-4.678-10.449-10.449-10.449H64.261
				c-5.771,0-10.449,4.678-10.449,10.449C53.812,204.822,58.49,209.5,64.261,209.5z"/>
			<path d="M231.445,313.99H64.261c-5.771,0-10.449,4.678-10.449,10.449c0,5.771,4.678,10.449,10.449,10.449h167.184
				c5.771,0,10.449-4.678,10.449-10.449C241.894,318.668,237.216,313.99,231.445,313.99z"/>
			<path d="M295.184,124.341L183.38,18.807c-1.733-1.939-4.192-3.074-6.792-3.135H43.363C19.928,15.936,0.836,34.568,0,57.99v303.02
				c0.849,23.25,20.1,41.573,43.363,41.273h214.204c22.218,0.008,40.235-17.997,40.242-40.215c0-0.353-0.004-0.706-0.014-1.058
				V132.178C297.979,129.325,297.042,126.513,295.184,124.341z M182.857,48.586l84.114,76.8h-72.098
				c-5.98,0.327-11.209-3.992-12.016-9.927V48.586z M258.641,381.358c-0.357,0.019-0.715,0.029-1.073,0.028H43.363
				c-11.732,0.309-21.631-8.669-22.465-20.375V57.99c0.809-11.881,10.559-21.177,22.465-21.42h118.596v78.89
				c0.844,17.479,15.418,31.127,32.914,30.824h82.024v214.727C277.475,371.671,269.301,380.781,258.641,381.358z"/>
			<path d="M409.6,52.766v-8.882c-0.182-7.589-3.159-14.845-8.359-20.375c-5.878-5.312-13.498-8.286-21.42-8.359
				c-16.156-0.291-29.488,12.57-29.779,28.725c0,0.003,0,0.006,0,0.009v8.359h-21.943c-2.6,0.061-5.059,1.196-6.792,3.135
				c-1.933,1.698-2.909,4.236-2.612,6.792v110.759c0,5.771,4.678,10.449,10.449,10.449s10.449-4.678,10.449-10.449V73.141h5.224
				v265.927c0,1.567-0.522,3.135,0.522,4.702l25.6,53.29c1.686,3.64,5.396,5.907,9.404,5.747c3.859,0.089,7.381-2.19,8.882-5.747
				l27.167-53.29c0.753-1.481,1.281-3.066,1.567-4.702V62.692C417.638,57.914,414.254,53.895,409.6,52.766z M370.939,43.884
				c0.276-4.411,3.939-7.845,8.359-7.837c2.129-0.176,4.228,0.587,5.747,2.09c1.588,1.501,2.526,3.563,2.612,5.747v8.359h-16.718
				V43.884z M379.82,369.37l-8.882-19.331h18.286L379.82,369.37z M397.061,329.141h-31.347V203.754h31.347V329.141z
				 M397.061,182.856h-31.347v-5.224h31.347V182.856z M397.061,156.733h-31.347V73.141h31.347V156.733z"/>
		</g>
	</g>
</g>
<g>
</g>
<g>
</g>
<g>
</g>
<g>
</g>
<g>
</g>
<g>
</g>
<g>
</g>
<g>
</g>
<g>
</g>
<g>
</g>
<g>
</g>
<g>
</g>
<g>
</g>
<g>
</g>
<g>
</g>
</svg>
