<?xml version="1.0" encoding="iso-8859-1"?>
<!-- Generator: Adobe Illustrator 19.0.0, SVG Export Plug-In . SVG Version: 6.00 Build 0)  -->
<svg version="1.1" id="Capa_1" xmlns="http://www.w3.org/2000/svg" xmlns:xlink="http://www.w3.org/1999/xlink" x="0px" y="0px"
	 viewBox="0 0 437.812 437.812" style="enable-background:new 0 0 437.812 437.812;" xml:space="preserve">
<g>
	<g>
		<g>
			<path d="M355.265,85.447V40.516c-0.552-5.854-5.622-10.233-11.494-9.927H11.494c-5.741-0.583-10.868,3.599-11.451,9.34
				C0.023,40.125,0.009,40.32,0,40.516v44.931c0.259,2.705,1.354,5.262,3.135,7.314l127.478,129.045v175.02
				c0.156,3.645,2.115,6.974,5.224,8.882c1.534,1.058,3.362,1.606,5.224,1.567l4.702-1.045l73.143-36.571
				c3.465-1.875,5.659-5.465,5.747-9.404V221.806L352.131,92.761C353.911,90.708,355.007,88.151,355.265,85.447z M206.367,210.312
				c-1.623,2.1-2.538,4.661-2.612,7.314v136.359l-52.245,25.6V217.626c-0.039-2.756-1.166-5.385-3.135-7.314L33.437,93.283h288.392
				L206.367,210.312z M334.367,72.385H20.898V51.487h313.469V72.385z"/>
			<path d="M437.811,270.395c-0.288-49.917-40.988-90.148-90.905-89.86s-90.148,40.988-89.86,90.905s40.988,90.148,90.905,89.86
				c49.713-0.287,89.862-40.669,89.861-90.384C437.812,270.742,437.812,270.569,437.811,270.395z M416.912,271.436
				c-0.289,38.375-31.631,69.25-70.006,68.961c-38.375-0.289-69.25-31.631-68.961-70.006c0.289-38.375,31.631-69.25,70.006-68.961v0
				c38.172,0.287,68.964,31.313,68.963,69.486C416.914,271.089,416.914,271.263,416.912,271.436z"/>
			<path d="M292.571,270.916c0,5.771,4.678,10.449,10.449,10.449h94.041c5.771,0,10.449-4.678,10.449-10.449
				s-4.678-10.449-10.449-10.449H303.02C297.25,260.467,292.571,265.145,292.571,270.916z"/>
		</g>
	</g>
</g>
<g>
</g>
<g>
</g>
<g>
</g>
<g>
</g>
<g>
</g>
<g>
</g>
<g>
</g>
<g>
</g>
<g>
</g>
<g>
</g>
<g>
</g>
<g>
</g>
<g>
</g>
<g>
</g>
<g>
</g>
</svg>
