<?xml version="1.0" encoding="iso-8859-1"?>
<!-- Generator: Adobe Illustrator 19.0.0, SVG Export Plug-In . SVG Version: 6.00 Build 0)  -->
<svg version="1.1" id="Capa_1" xmlns="http://www.w3.org/2000/svg" xmlns:xlink="http://www.w3.org/1999/xlink" x="0px" y="0px"
	 viewBox="0 0 437.8 437.8" style="enable-background:new 0 0 437.8 437.8;" xml:space="preserve">
<g>
	<g>
		<path d="M346.9,180.529c-50,0.3-90.2,40.9-89.9,90.9s41,90.2,90.9,89.9c49.7-0.3,89.9-40.6,89.9-90.4c0-0.2,0-0.3,0-0.5
			C437.5,220.429,396.8,180.229,346.9,180.529z M416.9,271.529c-0.3,38.4-31.6,69.3-70,69c-38.4-0.3-69.3-31.6-69-70
			c0.3-38.4,31.6-69.3,70-69c38.2,0.2,69,31.3,69,69.5C416.9,271.229,416.9,271.329,416.9,271.529z"/>
	</g>
</g>
<g>
	<g>
		<path d="M394.4,260.529h-36.6v-36.6c0-5.8-4.7-10.4-10.4-10.4c-5.7,0-10.4,4.7-10.4,10.4v36.6h-36.6c-5.8,0-10.4,4.7-10.4,10.4
			c0,5.8,4.7,10.4,10.4,10.4H337v36.6c0,5.8,4.7,10.4,10.4,10.4c5.7,0,10.4-4.7,10.4-10.4v-36.6h36.6c5.8,0,10.4-4.7,10.4-10.4
			C404.9,265.229,400.2,260.529,394.4,260.529z"/>
	</g>
</g>
<g>
	<g>
		<path d="M343.7,30.629H11.5c-5.7-0.6-10.9,3.6-11.5,9.3c0,0.2,0,0.4,0,0.6v44.9c0.3,2.7,1.4,5.3,3.1,7.3l127.5,129v175
			c0.2,3.6,2.1,7,5.2,8.9c1.5,1.1,3.4,1.6,5.2,1.6l4.7-1l73.1-36.6c3.5-1.9,5.7-5.5,5.7-9.4v-138.4l127.5-129
			c1.8-2.1,2.9-4.6,3.1-7.3v-45C354.7,34.729,349.6,30.329,343.7,30.629z M206.3,210.329c-1.6,2.1-2.5,4.7-2.6,7.3v136.4l-52.2,25.6
			v-161.9c0-2.8-1.2-5.4-3.1-7.3l-115-117.1h288.4L206.3,210.329z M334.3,72.429H20.9v-20.9h313.4V72.429z"/>
	</g>
</g>
<g>
</g>
<g>
</g>
<g>
</g>
<g>
</g>
<g>
</g>
<g>
</g>
<g>
</g>
<g>
</g>
<g>
</g>
<g>
</g>
<g>
</g>
<g>
</g>
<g>
</g>
<g>
</g>
<g>
</g>
</svg>
