<?xml version="1.0" encoding="iso-8859-1"?>
<!-- Generator: Adobe Illustrator 19.0.0, SVG Export Plug-In . SVG Version: 6.00 Build 0)  -->
<svg version="1.1" id="Capa_1" xmlns="http://www.w3.org/2000/svg" xmlns:xlink="http://www.w3.org/1999/xlink" x="0px" y="0px"
	 viewBox="0 0 461.737 461.737" style="enable-background:new 0 0 461.737 461.737;" xml:space="preserve">
<g>
	<g>
		<g>
			<path d="M457.143,59.073c-1.51-3.289-4.367-5.765-7.837-6.792c-3.469-0.707-7.053,0.487-9.404,3.135l-29.78,29.78l-31.347-31.869
				l29.78-29.78c2.557-2.402,3.564-6.028,2.612-9.404c-0.489-3.737-3.162-6.822-6.792-7.837
				c-31.383-10.998-66.291-3.083-89.861,20.376C301.8,39.676,293.407,56.28,290.482,74.224l-47.543-18.808l-21.42,25.078
				c-15.138-1.491-30.4-1.14-45.453,1.045l-22.988-23.51L87.771,86.24l2.612,33.437c-11.998,9.384-22.559,20.473-31.347,32.914
				L25.6,151.546L0,217.897l25.078,21.42c-1.481,15.138-1.13,30.399,1.045,45.453L2.09,307.759l28.735,65.306l32.914-2.612
				c9.701,11.891,20.946,22.433,33.437,31.347l-1.045,32.914l66.351,25.6l21.42-24.555c15.138,1.481,30.399,1.13,45.453-1.045
				l22.988,23.51l64.784-28.212l-2.09-33.437c11.998-9.384,22.559-20.473,31.347-32.914l32.914,1.045l25.6-66.351l-24.555-21.42
				c1.577-15.151,1.049-30.447-1.567-45.453l24.033-22.988l-15.151-35.004c18.482-2.534,35.586-11.178,48.588-24.555
				C459.661,125.352,467.751,90.567,457.143,59.073z M380.343,304.624l-15.151,38.661h-29.78l-3.135,4.702
				c-9.408,13.851-21.062,26.035-34.482,36.049l-4.702,3.657l2.612,29.257l-38.661,16.196l-20.375-21.42l-5.747,1.045
				c-16.534,3.142-33.458,3.671-50.155,1.567h-5.224l-19.331,21.943l-38.661-15.151v-30.302l-4.702-3.135
				c-13.962-9.27-26.168-20.945-36.049-34.482l-3.657-4.702l-29.78,2.612l-16.196-38.661l21.42-20.375l-1.045-5.224
				c-2.699-16.762-3.051-33.818-1.045-50.678v-5.224l-21.42-19.331l14.629-38.661h29.78l3.657-4.702
				c8.927-14.064,20.453-26.299,33.959-36.049l4.702-3.657l-2.09-29.78l38.139-16.718l20.898,21.42l5.224-1.045
				c16.587-2.698,33.47-3.05,50.155-1.045h5.747l19.331-21.943l40.751,15.674c0.184,4.764,0.884,9.494,2.09,14.106l-36.571,36.571
				c-16.465-7.914-34.499-12.021-52.767-12.016c-68.095-0.286-123.529,54.684-123.815,122.779
				c-0.286,68.095,54.684,123.529,122.779,123.815c67.889,0.285,123.236-54.364,123.812-122.251
				c0.194-16.887-3.189-33.624-9.927-49.11l37.094-37.616l12.539,2.612l12.539,29.257l-21.42,20.898l1.045,5.224
				c3.137,16.71,3.666,33.805,1.567,50.678l-1.045,5.224L380.343,304.624z M277.943,246.11l21.42-21.42
				c3.556,10.785,5.321,22.081,5.224,33.437c0.282,56.842-45.569,103.15-102.411,103.431
				c-56.842,0.282-103.15-45.569-103.431-102.411c-0.282-56.842,45.569-103.15,102.411-103.431
				c13.234-0.066,26.356,2.422,38.648,7.325l-22.988,22.465c-24.384-4.662-49.483,3.182-66.873,20.898
				c-29.278,29.698-29.278,77.404,0,107.102c14.147,14.098,33.318,21.992,53.29,21.943c41.547,0.449,75.592-32.868,76.041-74.416
				C279.328,256.027,278.882,251.027,277.943,246.11z M353.698,149.979c-3.754-1.48-8.025-0.667-10.971,2.09l-83.592,83.592
				c-2.569,2.619-3.734,6.307-3.135,9.927c5.37,18.751,0.173,38.94-13.584,52.767c-21.352,21.496-56.087,21.613-77.584,0.261
				c-21.496-21.352-21.613-56.087-0.261-77.584c10.255-10.211,24.191-15.86,38.661-15.674l14.629,1.567
				c3.537,1.04,7.36,0.034,9.927-2.612l83.592-83.592c2.728-2.949,3.719-7.109,2.612-10.971
				c-8.144-23.852-2.299-50.255,15.151-68.441c13.467-13.499,32.197-20.379,51.2-18.808l-24.033,23.51
				c-3.725,4.165-3.725,10.464,0,14.629l45.976,47.02c2.053,1.78,4.609,2.876,7.314,3.135c2.887-0.149,5.643-1.251,7.837-3.135
				l22.988-24.033c1.633,18.856-5.268,37.452-18.808,50.678C403.956,152.302,377.458,158.417,353.698,149.979z"/>
			<path d="M226.743,236.183c-6.041-6.166-14.357-9.568-22.988-9.404c-8.777-0.126-17.241,3.26-23.51,9.404
				c-12.984,12.722-13.197,33.561-0.475,46.545c0.157,0.16,0.315,0.318,0.475,0.475c6.109,6.065,14.38,9.448,22.988,9.404
				c8.746-0.04,17.15-3.401,23.51-9.404c12.984-12.722,13.197-33.561,0.475-46.545C227.061,236.498,226.903,236.34,226.743,236.183z
				 M212.585,267.582c-0.152,0.161-0.309,0.318-0.47,0.47c-4.623,4.761-12.231,4.872-16.992,0.249
				c-0.084-0.082-0.167-0.165-0.249-0.249c-4.617-4.357-4.827-11.631-0.47-16.248c0.152-0.161,0.309-0.318,0.47-0.47
				c2.241-2.519,5.516-3.868,8.882-3.657c3.2-0.126,6.28,1.222,8.359,3.657C216.731,255.691,216.941,262.965,212.585,267.582z"/>
		</g>
	</g>
</g>
<g>
</g>
<g>
</g>
<g>
</g>
<g>
</g>
<g>
</g>
<g>
</g>
<g>
</g>
<g>
</g>
<g>
</g>
<g>
</g>
<g>
</g>
<g>
</g>
<g>
</g>
<g>
</g>
<g>
</g>
</svg>
